<?xml version="1.0" encoding="utf-8"?>
<!-- Generator: Adobe Illustrator 24.1.2, SVG Export Plug-In . SVG Version: 6.00 Build 0)  -->
<svg version="1.1" id="Layer_1" xmlns="http://www.w3.org/2000/svg" xmlns:xlink="http://www.w3.org/1999/xlink" x="0px" y="0px"
	 viewBox="0 0 24 24" style="enable-background:new 0 0 24 24;" xml:space="preserve">
<style type="text/css">
	.st0{opacity:0.3;fill:#FFFFFF;}
</style>
<g>
	<ellipse class="st0" cx="12" cy="9.3" rx="3" ry="3.4"/>
	<path class="st0" d="M12,0C5.4,0,0,5.4,0,12s5.4,12,12,12s12-5.4,12-12S18.6,0,12,0z M19.3,19c-0.1,0-0.1,0-0.2,0
		c-0.2,0-0.4-0.1-0.5-0.3c-1.1-3-3.8-5-6.7-5s-5.6,2-6.7,5C5.2,19,4.9,19.1,4.7,19c-0.3-0.1-0.4-0.4-0.3-0.6c1-2.7,3.1-4.6,5.5-5.3
		C8.7,12.3,8,10.9,8,9.3c0-2.4,1.8-4.4,4-4.4s4,2,4,4.4c0,1.6-0.8,2.9-1.9,3.7c2.5,0.7,4.5,2.6,5.5,5.3C19.7,18.6,19.6,18.9,19.3,19
		z"/>
</g>
</svg>
